<?xml version="1.0" encoding="UTF-8" standalone="no"?>
<svg
   width="393"
   height="529"
   viewBox="0 0 393 529"
   fill="none"
   version="1.1"
   id="svg16"
   sodipodi:docname="Group 20.svg"
   inkscape:version="1.3.2 (091e20e, 2023-11-25, custom)"
   inkscape:export-filename="pets_ilustracao.svg"
   inkscape:export-xdpi="96"
   inkscape:export-ydpi="96"
   xmlns:inkscape="http://www.inkscape.org/namespaces/inkscape"
   xmlns:sodipodi="http://sodipodi.sourceforge.net/DTD/sodipodi-0.dtd"
   xmlns="http://www.w3.org/2000/svg"
   xmlns:svg="http://www.w3.org/2000/svg">
  <defs
     id="defs16" />
  <sodipodi:namedview
     id="namedview16"
     pagecolor="#ffffff"
     bordercolor="#000000"
     borderopacity="0.25"
     inkscape:showpageshadow="2"
     inkscape:pageopacity="0.0"
     inkscape:pagecheckerboard="0"
     inkscape:deskcolor="#d1d1d1"
     inkscape:zoom="1.0626652"
     inkscape:cx="54.579749"
     inkscape:cy="247.96145"
     inkscape:window-width="1920"
     inkscape:window-height="991"
     inkscape:window-x="-9"
     inkscape:window-y="-9"
     inkscape:window-maximized="1"
     inkscape:current-layer="svg16" />
  <path
     style="fill:#ffffff;stroke-width:6.07748;stroke-linecap:round;stroke-linejoin:round;stroke-miterlimit:3.7;paint-order:stroke fill markers"
     d="m 216.92327,218.25409 c 0,0 -1.99623,-21.29308 -15.3044,-31.93962 -13.30818,-10.64655 -25.95095,-15.30441 -25.95095,-15.30441 0,0 -98.716816,33.83875 -105.467291,-52.5673 -1.382761,-17.69934 20.729927,-20.025527 32.573301,-27.216556 8.09583,-4.915603 19.26741,-9.306993 26.90794,-17.434307 8.07577,-8.590272 13.01133,-20.682325 18.7043,-29.209507 C 190.74558,-18.8654 279.4717,-9.3157233 317.4,67.871698 336.17346,106.07732 394.76177,203.88262 387.03519,304.83186 378.60475,414.97716 292.90693,526.42533 154.37484,524.34214 29.011368,522.45698 4.6958156,460.41809 4.5199825,420.43515 4.1906064,345.53785 46.689793,316.193 91.604403,303.60235 140.80598,289.80995 193.75302,293.58183 216.92327,218.25409 Z"
     id="path17"
     sodipodi:nodetypes="cscsssssssssc" />
  <path
     d="M244.602 404.96C249.742 403.809 255.635 405.015 260.128 407.617C281.497 419.995 273.629 449.607 264.379 466.968C250.054 493.857 223.714 512.358 194.993 520.776C185.194 523.704 175.167 525.81 165.017 527.069C106.969 533.864 30.0176 512.331 7.08974 452.255C-4.13973 422.832 -1.99658 382.387 13.2854 354.63C28.8424 326.94 54.5868 306.414 85.0444 297.414C95.7687 294.128 107.624 292.039 118.688 290.519C132.174 288.664 144.663 288.231 157.851 284.202C160.865 283.281 163.37 282.063 166.207 280.762C192.98 268.471 198.441 241.47 211.302 217.878C219.523 202.263 231.289 188.593 245.666 178.336C247.891 176.748 254.706 170.877 257.605 173.491C260.694 176.277 259.379 184.268 259.697 188.262C260.16 194.094 260.694 200.091 261.747 205.866C262.301 209.941 263.311 214.046 265.083 217.776C265.838 221.859 266.903 225.509 261.138 226.245C260.145 226.372 258.727 226.137 257.902 225.423C253.664 220.553 250.454 198.662 250.097 192.677C249.985 190.893 249.935 189.105 249.945 187.317C234.631 198.008 222.882 214.895 215.244 231.696C207.115 249.581 200.745 267.031 185.205 280.166C174.112 289.543 162.8 293.559 148.632 296.413C144.592 297.228 139.941 297.339 135.952 298.03C126.854 299.608 117.41 300.271 108.381 301.827C81.7791 306.298 56.7161 317.463 38.0391 337.31C23.5953 352.658 14.346 371.06 11.1188 391.919C7.20532 417.216 11.3816 447.005 26.6086 468.105C45.9674 494.927 79.0318 509.829 110.811 515.606C117.161 516.727 130.804 518.546 137.047 518.687C167.599 519.237 200.51 513.204 225.893 495.352C244.926 481.964 259.828 462.326 263.636 438.984C264.961 430.858 263.569 420.546 255.086 416.12C254.546 415.837 253.283 415.346 252.855 415.019L253.057 414.75C253.945 414.969 254.257 415.102 255.152 415.044C254.011 413.408 254.645 409.733 252.318 405.376C249.797 405.442 247.13 405.154 244.602 404.96Z"
     fill="#1C4056"
     id="path1" />
  <path
     d="M159.031 174.745C140.481 179.716 128.43 181.378 109.758 175.676C92.9895 170.555 79.3052 157.592 71.5214 142.126C67.0803 132.989 62.0662 119.421 64.9527 109.29C67.5979 100.004 82.3312 95.6056 90.4805 92.2972C98.0088 89.321 105.41 86.0328 112.666 82.4415C131.246 73.1186 130.721 70.8482 137.3 52.657C162.447 -16.8806 278.923 -16.5944 310.168 47.8808C319.604 67.4771 320.879 90.0155 313.718 110.552C308.246 126.213 296.805 140.123 281.93 147.888C268.12 155.097 250.821 151.834 243.949 136.712L243.827 136.437L244.087 135.861C243.816 135.283 243.561 134.697 243.321 134.106C242.503 132.089 239.503 123.586 240.147 122.057L240.982 123.519C243.872 124.639 246.557 120.825 248.543 121.836C249.083 125.145 249.29 125.515 250.129 128.709C250.429 128.286 250.358 128.456 250.429 127.952C256.1 141.751 265.566 145.293 278.982 138.176C291.765 131.393 301.129 118.072 305.397 104.497C318.364 63.2387 292.292 24.6821 252.049 13.7219C216.481 3.61664 170.876 12.5959 150.875 46.3876C144.607 57.2648 144.596 69.0871 135.712 78.6948C125.01 90.2698 110.196 93.2046 97.2397 100.389C98.7799 102.3 99.8111 107.218 100.034 109.677C101.107 121.493 92.7454 135.104 81.1493 138.615C83.5011 146.351 94.6376 157.172 101.634 161.224C105.867 163.676 112.872 166.866 117.68 167.834C138.94 172.113 161.895 166.985 176.955 150.726C179.171 148.692 180.699 145.761 182.973 143.891C185.225 142.04 189.733 144.071 190.116 146.377C191.195 152.86 179.835 161.412 175.84 165.074C173.615 165.951 167.93 170.298 165.106 171.52C163.958 172.018 159.636 173.811 159.078 174.535L159.031 174.745ZM88.9864 103.756C84.4776 105.361 76.513 107.913 74.3174 112.55C72.2359 116.947 75.413 126.094 77.2619 130.339C82.8645 127.466 88.1249 122.409 89.7463 116.142C90.8422 111.905 89.9549 107.894 88.9864 103.756Z"
     fill="#234A5B"
     id="path2" />
  <path
     d="M88.9862 103.756C90.7302 102.311 95.0335 100.993 97.2396 100.389C98.7797 102.3 99.811 107.218 100.034 109.677C101.107 121.493 92.7453 135.104 81.1492 138.615C79.505 136.247 78.0175 133.121 77.2617 130.339C82.8644 127.466 88.1247 122.409 89.7462 116.141C90.842 111.905 89.9548 107.894 88.9862 103.756Z"
     fill="#85C6A6"
     id="path3" />
  <path
     d="M320.938 73.2242C323.105 74.1328 327.395 77.9599 328.738 79.8716C334.107 87.5138 339.43 96.2138 343.951 104.359C369.446 149.451 385.372 199.315 390.733 250.837C391.718 260.78 392.566 269.762 392.48 279.816C392.017 305.523 388.137 331.055 380.945 355.739C363.41 414.563 325.321 465.132 273.618 498.221C266.329 502.972 258.427 507.304 250.74 511.379C247.237 513.234 243.117 514.748 239.855 516.582L239.522 516.773C231.881 520.695 227.313 511.462 234.846 508.059C323.143 468.163 380.487 381.729 382.279 284.758C384.054 221.005 363.236 158.073 332.016 103.097C327.173 94.5728 317.114 84.2306 320.938 73.2242Z"
     fill="#85C6A6"
     id="path4" />
  <path
     d="M162.283 487.653C157.876 488.867 153.404 489.428 148.961 489.866C117.107 493.005 86.3586 483.648 61.0834 464.212C55.0476 459.572 59.6389 453.101 65.8016 455.569C68.5519 456.671 71.5726 459.816 74.1717 461.455C79.3772 464.741 84.7269 468.125 90.3625 470.635C98.6514 474.36 107.329 477.144 116.236 478.944C129.536 481.523 151.064 481.939 163.651 476.917C191.872 465.656 196.997 427.294 187.52 401.668C177.855 374.449 147.838 355.986 119.165 360.493C107.124 362.385 107.675 352.736 114.672 351.36C150.879 344.46 188.038 367.224 198.064 402.769C203.927 423.558 202.996 447.08 191.616 465.917C190.465 467.157 189.212 467.773 187.872 468.76C179.697 474.784 171.351 480.517 163.054 486.363C162.664 486.638 162.423 487.209 162.283 487.653Z"
     fill="#85C6A6"
     id="path5" />
  <path
     d="M332.8 286.545L333.574 286.761C333.424 288.509 332.62 288.703 332.39 290.927C332.906 291.096 334.09 290.791 334.717 290.683C335.169 289.56 334.021 289.208 334.379 288.195C337.909 289.388 338.223 295.806 339.773 297.42C340.353 295.966 340.195 294.338 341.318 293.551C339.482 302.365 332.37 313.275 324.829 318.173L324.593 318.323C324.147 319.269 321.878 320.359 320.916 320.916C315.662 323.942 309.841 326.003 303.925 327.342C295.437 329.264 287.23 328.812 280.41 335.313C268.456 346.712 274.353 362.643 276.405 376.593C276.943 380.262 276.99 384.062 276.902 387.764C276.813 391.4 276.81 397.785 273.912 400.342C273.044 401.107 271.99 401.424 270.844 401.34C269.449 401.241 267.657 400.583 266.77 399.468C265.291 397.61 267.022 386.966 266.956 383.915C266.714 372.458 262.329 360.904 263.719 349.494C264.562 342.591 266.631 336.592 271.149 331.184C281.68 318.575 294.261 320.581 308.102 316.237C312.673 314.801 317.18 312.296 320.957 309.354C328.651 301.117 330.318 297.755 332.8 286.545Z"
     fill="#3E6A6F"
     id="path6" />
  <path
     d="M293.138 177.563C294.364 178.052 296.353 178.728 296.821 180.05C297.72 182.577 297.393 186.697 296.785 189.361C294.672 198.649 294.32 206.076 294.722 215.592C302.396 220.169 308.795 223.33 314.453 230.509C315.687 232.072 317.049 233.412 318.07 235.179C318.078 235.281 318.175 236.691 318.189 236.645C317.551 238.772 316.109 242.846 314.52 244.26C313.563 244.514 314.001 244.554 313.152 244.266C312.459 243.244 312.756 243.348 311.801 243.008C311.25 242.377 309.405 239.741 308.828 238.888C303.822 231.485 293.374 224.309 284.864 221.635C279.642 219.994 270.758 218.672 265.083 217.776C263.311 214.046 262.301 209.941 261.747 205.866C263.219 203.328 265.366 199.685 267.091 197.415C272.505 190.285 284.454 180.091 293.138 177.563ZM269.809 209.156C271.177 209.232 272.544 209.286 273.903 209.458C277.06 209.793 282.296 211.283 285.441 212.303C285.072 207.379 286.165 199.996 286.737 194.963C286.856 193.925 287.48 192.106 287.166 191.42L286.936 191.366C280.199 196.1 274.727 202.622 269.809 209.156Z"
     fill="#85C6A6"
     id="path7" />
  <path
     d="M205.858 455.14C206.038 454.604 208.706 451.706 209.278 451.004C211.665 447.998 214.286 444.625 216.22 441.322C224.381 427.383 224.889 407.999 244.601 404.96C247.13 405.154 249.797 405.442 252.318 405.376C254.644 409.733 254.011 413.408 255.152 415.044C254.257 415.102 253.944 414.969 253.057 414.75L252.855 415.019C248.561 414.098 244.646 414.234 240.817 416.725C233.543 421.459 232.277 431.366 228.792 438.74C223.729 449.448 217.234 458.648 208.151 466.33C206.979 467.32 203.225 470.377 202.039 471.006C194.176 478.586 172.981 485.484 162.283 487.653C162.423 487.209 162.664 486.637 163.054 486.363C171.351 480.516 179.697 474.784 187.872 468.76C189.212 467.773 190.465 467.157 191.616 465.917C194.683 465.468 203.011 457.369 205.858 455.14Z"
     fill="#6CA091"
     id="path8" />
  <path
     d="M191.616 465.917C194.683 465.468 203.011 457.369 205.858 455.14C204.591 459.305 191.744 466.577 188.124 469.198C189.683 471.081 191.836 474.612 193.699 475.73C195.466 474.825 200.462 470.712 202.039 471.006C194.176 478.586 172.981 485.484 162.283 487.653C162.423 487.209 162.664 486.637 163.054 486.363C171.351 480.516 179.697 474.784 187.872 468.76C189.212 467.773 190.465 467.157 191.616 465.917Z"
     fill="#254D5C"
     id="path9" />
  <path
     d="M243.827 136.437C242.358 133.931 241.303 130.585 240.569 127.758C239.333 123.038 238.674 118.187 238.606 113.309C238.512 96.9013 244.539 79.6777 240.98 62.8932C239.608 56.4252 237.275 50.4973 233.766 44.8983C231.475 41.2426 235.542 35.6544 239.943 37.9314C242.562 39.2624 244.536 43.9021 245.864 46.4611C255.126 66.043 250.702 86.9824 248.87 107.524C248.322 113.982 248.594 121.604 250.429 127.952C250.358 128.456 250.429 128.286 250.129 128.709C249.29 125.515 249.083 125.145 248.543 121.836C246.557 120.825 243.871 124.639 240.982 123.519L240.147 122.057C239.503 123.586 242.502 132.089 243.32 134.106C243.561 134.697 243.816 135.283 244.086 135.861L243.827 136.437Z"
     fill="#82BFA3"
     id="path10" />
  <path
     d="M175.839 165.074C194.115 166.323 211.753 178.718 210.118 198.749C209.688 204.024 207.478 207.934 202.155 209.408C200.755 204.229 201.365 202.079 201.141 196.962C200.795 189.059 195.68 182.3 188.837 178.576C182.959 175.379 174.85 173.938 168.172 174.216C165.457 174.329 161.526 174.898 159.031 174.744L159.078 174.535C159.636 173.811 163.958 172.018 165.106 171.52C167.93 170.298 173.615 165.951 175.839 165.074Z"
     fill="#85C6A6"
     id="path11" />
  <path
     d="M318.07 235.179C321.517 240.879 323.778 245.258 325.511 251.829C326.945 256.875 327.48 262.743 329.78 267.467C332.373 272.792 339.199 275.679 341.262 281.403C342.319 284.34 342.458 290.636 341.318 293.551C340.194 294.338 340.353 295.966 339.773 297.42C338.222 295.806 337.909 289.388 334.378 288.195C334.02 289.208 335.169 289.56 334.717 290.683C334.09 290.791 332.905 291.096 332.39 290.927C332.62 288.703 333.424 288.509 333.574 286.761L332.8 286.545C332.281 282.732 323.062 275.87 320.663 270.581C317.601 263.823 317.925 260.04 316.048 253.215C315.404 250.876 312.8 245.686 311.801 243.008C312.755 243.348 312.459 243.244 313.152 244.266C314.001 244.554 313.562 244.514 314.519 244.26C316.109 242.846 317.551 238.772 318.189 236.645C318.175 236.691 318.078 235.281 318.07 235.179Z"
     fill="#5F9087"
     id="path12" />
  <path
     d="M262.734 284.728C265.33 284.731 267.929 284.828 270.519 285.022C274.272 285.291 289.321 286.287 288.536 291.681C286.642 294.336 281.877 292.771 279.164 292.292C269.665 290.37 261.968 289.823 252.434 291.049C243.045 292.256 238.319 293.545 229.647 296.915C224.974 298.598 220.226 301.727 215.925 304.223C214.688 305.022 211.558 306.805 210.181 305.438C206.266 301.547 216.914 296.718 219.088 295.481C232.702 287.749 247.475 284.9 262.734 284.728Z"
     fill="#85C6A6"
     id="path13" />
  <path
     d="M275.243 297.739C278.599 297.631 284.917 296.81 287.768 298.831C289.127 299.794 288.606 302.886 287.272 303.172C281.755 304.353 275.95 303.48 270.223 304.467C255.185 307.06 242.687 313.855 231.572 324.2C230.335 325.368 228.212 328.457 226.703 328.657C223.348 329.098 221.441 326.494 223.824 323.767C237.884 307.69 254.724 300.936 275.243 297.739Z"
     fill="#85C6A6"
     id="path14" />
  <path
     d="M173.019 65.0464C180.407 64.5965 191.134 69.3918 193.285 77.8597C193.824 79.9811 190.087 82.4542 188.032 82.3479C185.587 82.2212 183.75 79.9822 182.074 78.3015C175.144 72.2468 172.519 75.0721 165.059 77.6578C160.963 79.0778 158.549 72.4792 161.333 69.6154C164.592 66.2625 168.556 65.5154 173.019 65.0464Z"
     fill="#204559"
     id="path15" />
  <path
     d="M281.647 260.427C285.674 260.405 285.602 263.388 289.454 264.735C293.673 266.211 304.681 261.623 301.852 270.176C301.517 271.191 300.479 271.532 299.561 271.932C293.432 274.131 284.182 271.998 280.027 266.906C277.816 264.199 279.378 262.117 281.647 260.427Z"
     fill="#85C6A6"
     id="path16" />
</svg>
