<svg width="121" height="137" viewBox="0 0 121 137" fill="none" xmlns="http://www.w3.org/2000/svg">
<circle cx="75.5" cy="46.5" r="37.5" fill="white"/>
<path d="M74.7414 4.06584C94.942 3.35233 113.274 17.9855 116.909 37.9174C122.514 68.6397 94.9263 93.9422 64.7122 86.0816C63.0496 85.636 61.4205 85.074 59.8368 84.3999C56.7174 83.0483 55.5643 82.002 51.7711 82.6014C49.2405 83.0014 46.8079 85.4301 46.1815 87.8642C45.8662 89.0891 46.1867 90.8027 45.2826 91.8703C44.3338 92.9907 42.7764 93.9671 41.5829 94.9072C40.4696 95.8008 39.424 96.7758 38.4549 97.824C36.4113 100.073 34.8146 102.706 33.1675 105.239C31.8123 107.329 30.4125 109.391 28.9691 111.421C27.7766 113.205 26.2864 114.998 24.8352 116.577C21.085 120.659 16.1484 125.025 10.3589 125.428C0.670667 126.101 0.784833 116.162 4.27196 109.892C7.76684 103.332 13.5234 98.4352 19.3444 93.9931C22.9957 91.2068 26.7112 88.6383 29.4711 84.8736C30.0474 84.0873 32.1835 80.6024 32.8337 80.2365C35.0817 78.9709 37.5003 79.9662 39.408 77.2436C41.3261 75.0234 41.7253 72.8712 41.2717 69.9547C40.7377 68.1714 39.4115 66.3062 38.5863 64.6788C30.7103 49.1466 33.3029 31.0319 44.6628 18.0229C50.6375 11.2921 58.6414 6.68972 67.464 4.91181C69.7262 4.45481 72.4483 4.22052 74.7414 4.06584ZM76.6286 80.0896C95.5118 79.6523 110.476 64.0088 110.075 45.1247C109.673 26.2407 94.0585 11.2468 75.1738 11.6118C56.2377 11.9778 41.1944 27.6442 41.5966 46.5796C41.9988 65.5148 57.6941 80.5282 76.6286 80.0896ZM6.13753 120.518L6.33935 120.775C6.59039 120.461 6.75117 117.801 7.03752 117.036C11.1507 106.053 22.7237 99.7843 29.9695 91.0692C30.8622 89.9954 34.6 85.0772 34.2297 83.8647C33.5239 84.7331 32.9419 85.6915 32.275 86.594C31.1465 88.094 29.8863 89.4903 28.5093 90.766C25.5401 93.4857 22.1615 95.8905 18.9893 98.3374C13.7568 102.374 2.51005 113.279 6.13753 120.518ZM113.817 49.7735C113.944 49.0582 113.976 47.9473 113.801 47.2491L113.679 47.2722C113.632 47.7573 113.592 48.1771 113.581 48.6641L113.726 48.6431C113.82 49.0882 113.814 49.3173 113.817 49.7735Z" fill="#113556"/>
<path d="M82.3318 50.9624C82.7884 50.9551 83.341 50.9875 83.8049 51.0023C85.0546 51.8389 86.766 54.45 87.7961 55.7227C87.9172 55.8725 88.1686 56.7316 88.2385 56.9754C88.0828 57.3793 87.9364 57.8133 87.7908 58.2233C86.2681 59.6119 85.1511 59.0314 83.3322 58.604C81.7565 58.5453 80.4546 59.3082 78.8915 58.8225C75.2869 57.7027 81.0004 51.4308 82.3318 50.9624Z" fill="#7CD1AA"/>
<path d="M82.9951 23.5493C83.054 23.5529 83.1128 23.5578 83.1717 23.5636C85.1025 23.7629 85.7036 25.7523 86.9816 27.0801C87.6251 27.8191 88.3268 28.9633 88.1291 29.9798C87.6533 32.4272 84.9187 31.4045 83.3476 31.1778C82.2549 31.1762 81.409 31.4599 80.4538 31.5138C76.8168 31.7061 77.419 28.4703 79.3545 26.5792C80.5924 25.3697 81.0317 23.7473 82.9951 23.5493Z" fill="#7CD1AA"/>
<path d="M65.0974 35.5878C65.6501 35.5589 66.3912 35.5721 66.958 35.5663C67.4464 35.9285 67.9773 36.3497 68.3221 36.8788C69.7551 39.0782 73.6296 42.1341 69.0709 43.7358C68.3027 43.5196 67.528 43.3266 66.7482 43.1573C65.197 42.7948 63.7525 43.8545 62.4413 43.4915C59.5053 42.5986 61.2356 39.6557 62.6431 38.194C63.4981 37.3063 63.9752 36.2116 65.0974 35.5878Z" fill="#7CD1AA"/>
<path d="M67.21 65.2666C68.1537 65.3401 68.9003 65.928 69.355 66.7363C70.7409 69.1995 73.218 70.1886 71.0954 72.9394C69.6114 73.2934 68.5745 72.9285 67.1199 72.6045C65.5719 72.6854 62.3334 73.6678 62.027 71.3324C61.7951 69.5642 64.0942 67.7555 65.0817 66.4702C65.7336 65.6219 66.1678 65.3751 67.21 65.2666Z" fill="#7CD1AA"/>
<path d="M79.902 45.3464C82.9615 45.3066 83.3286 49.5728 81.2298 50.4922C80.5802 50.5957 80.1093 50.2743 79.572 49.9543C78.7408 48.3601 78.253 46.6359 79.902 45.3464Z" fill="#7CD1AA"/>
<path d="M80.1436 17.8388C82.8616 17.82 83.3815 22.2049 81.4534 23.0641C78.7625 23.239 78.0557 19.4871 80.1436 17.8388Z" fill="#7CD1AA"/>
<path d="M68.3563 29.9022C70.9121 29.8603 71.0888 34.0936 68.4418 34.9896C66.2579 35.6991 65.837 30.8966 68.3563 29.9022Z" fill="#7CD1AA"/>
<path d="M85.0294 45.3995C87.9132 45.2886 87.3446 48.109 86.5615 49.938L85.4723 50.5064C83.2836 51.1126 82.7887 46.968 85.0294 45.3995Z" fill="#7CD1AA"/>
<path d="M63.4754 29.786C64.1235 29.9717 64.2709 30.0782 64.8448 30.4482C64.9351 30.6046 65.0204 30.7638 65.1007 30.9254C65.8019 32.314 65.9631 34.2913 64.3219 35.0639C63.8127 34.9279 63.2769 34.752 62.7705 34.5961C61.8077 33.0453 61.2634 30.4999 63.4754 29.786Z" fill="#7CD1AA"/>
<path d="M85.2671 17.9681C87.9566 17.8458 87.8252 22.1357 85.5921 23.0731C83.9682 23.1496 83.9903 22.4223 83.5238 21.0617C83.599 20.5895 83.7073 20.1233 83.848 19.6665C84.1234 18.7816 84.4764 18.3827 85.2671 17.9681Z" fill="#7CD1AA"/>
<path d="M69.4059 60.0245C72.0191 59.7985 72.1369 63.8157 69.6811 64.9841C66.894 65.0514 67.4098 61.2769 69.4059 60.0245Z" fill="#7CD1AA"/>
<path d="M64.7367 59.7962C67.4145 60.2261 67.7008 64.1248 65.4802 64.8482C62.8836 64.2685 62.4374 60.8859 64.7367 59.7962Z" fill="#7CD1AA"/>
<path d="M76.5615 49.1316L76.6624 49.1303C77.7313 49.1229 78.1596 49.6208 78.8821 50.3299C79.2808 51.6357 79.7453 52.8818 78.3832 53.7439C75.6718 53.9461 74.7668 50.7109 76.5615 49.1316Z" fill="#7CD1AA"/>
<path d="M71.7872 33.6529C74.4056 33.9566 73.6344 37.9259 71.2867 38.4357C70.1556 38.3786 70.011 37.7148 69.5853 36.814C70.0473 35.0892 70.3158 34.5616 71.7872 33.6529Z" fill="#7CD1AA"/>
<path d="M76.7636 21.7468C77.0338 21.7451 77.3029 21.7786 77.5646 21.8459C79.2433 22.2763 80.3714 25.3343 78.3051 26.3844C76.2457 26.5519 74.4997 23.0293 76.7636 21.7468Z" fill="#7CD1AA"/>
<path d="M88.5209 21.8612C91.3166 21.6096 90.7683 25.2221 88.5192 26.456C85.6309 26.6492 86.5091 23.1984 88.5209 21.8612Z" fill="#7CD1AA"/>
<path d="M88.8236 49.144C90.9243 49.3257 91.02 53.2751 88.0925 53.8522C86.7706 53.6959 86.3387 52.8666 86.7029 51.6065C87.0621 50.3639 87.7283 49.7532 88.8236 49.144Z" fill="#7CD1AA"/>
<path d="M59.6646 33.6627C62.3613 33.6232 63.2246 37.4586 61.3709 38.3138C60.5946 38.3249 60.191 38.1768 59.6076 37.62C59.0512 37.0903 58.7352 36.3563 58.733 35.5879C58.7232 34.678 59.0608 34.2774 59.6646 33.6627Z" fill="#7CD1AA"/>
<path d="M72.8396 63.7833C75.2856 64.2528 74.2713 67.7261 72.021 68.4907C69.6051 67.2081 70.8415 64.798 72.8396 63.7833Z" fill="#7CD1AA"/>
<path d="M61.3204 63.4234C63.8187 63.9466 64.6058 67.1244 62.4705 67.9545C60.5077 67.896 59.1209 64.5692 61.3204 63.4234Z" fill="#7CD1AA"/>
<path d="M72.854 7.73213C73.8238 7.69311 74.4329 7.70744 75.4025 7.77296C66.5756 9.01237 61.6406 10.2291 54.2448 15.684C45.8602 21.8684 39.952 30.9514 38.3023 41.2602C38.1652 42.1681 38.0121 43.0735 37.8427 43.9761C37.5975 35.8297 40.9533 26.9552 46.2305 20.8224C53.4163 12.4715 62.0918 8.69152 72.854 7.73213Z" fill="#7CD1AA"/>
<path d="M113.581 48.6641L113.726 48.6431C113.82 49.0882 113.814 49.3173 113.817 49.7735C113.717 53.9782 112.28 59.057 110.48 62.8491C105.056 74.2803 93.3643 82.5206 80.7383 83.6924C80.2818 83.6766 80.0024 83.7048 79.6139 83.4666C87.5584 82.0833 93.8895 79.015 100.009 73.7565C106.882 67.8513 112.933 57.8116 113.581 48.6641Z" fill="#7CD1AA"/>
<path d="M44.5077 73.4211C44.8369 73.6228 46.8354 75.7718 47.2576 76.1813C48.4703 77.3618 49.7741 78.445 51.1571 79.4205C47.775 80.5893 46.0091 81.5866 44.206 84.7156C43.9475 85.215 43.6087 85.756 43.3187 86.2443C42.562 85.3916 39.5062 82.447 38.7101 81.8333C42.1656 79.3756 43.7226 77.6314 44.5077 73.4211Z" fill="#7CD1AA"/>
<path d="M80.7383 83.6924C79.8686 83.8633 77.1531 84.0494 76.3543 83.964C77.0888 83.7764 78.8712 83.4893 79.6139 83.4666C80.0024 83.7048 80.2817 83.6766 80.7383 83.6924Z" fill="#538497"/>
<path d="M113.581 48.6641C113.592 48.1771 113.632 47.7573 113.679 47.2722L113.801 47.2491C113.976 47.9473 113.944 49.0582 113.817 49.7735C113.813 49.3173 113.82 49.0882 113.726 48.6431L113.581 48.6641Z" fill="#3E5D7E" fill-opacity="0.988235"/>
</svg>
