<?xml version="1.0" encoding="UTF-8" standalone="no"?>
<svg
   width="393"
   height="529"
   viewBox="0 0 393 529"
   fill="none"
   version="1.1"
   id="svg16"
   sodipodi:docname="Group 20.svg"
   inkscape:version="1.3.2 (091e20e, 2023-11-25, custom)"
   inkscape:export-filename="pets_ilustracao.png"
   inkscape:export-xdpi="96"
   inkscape:export-ydpi="96"
   xmlns:inkscape="http://www.inkscape.org/namespaces/inkscape"
   xmlns:sodipodi="http://sodipodi.sourceforge.net/DTD/sodipodi-0.dtd"
   xmlns="http://www.w3.org/2000/svg"
   xmlns:svg="http://www.w3.org/2000/svg">
  <defs
     id="defs16" />
  <sodipodi:namedview
     id="namedview16"
     pagecolor="#ffffff"
     bordercolor="#000000"
     borderopacity="0.25"
     inkscape:showpageshadow="2"
     inkscape:pageopacity="0.0"
     inkscape:pagecheckerboard="0"
     inkscape:deskcolor="#d1d1d1"
     inkscape:zoom="1.0626652"
     inkscape:cx="54.579749"
     inkscape:cy="247.96145"
     inkscape:window-width="1920"
     inkscape:window-height="991"
     inkscape:window-x="-9"
     inkscape:window-y="-9"
     inkscape:window-maximized="1"
     inkscape:current-layer="svg16" />
  <path
     style="fill:#ffffff;stroke-width:6.07748;stroke-linecap:round;stroke-linejoin:round;stroke-miterlimit:3.7;paint-order:stroke fill markers"
     d="m 216.92327,218.25409 c 0,0 -1.99623,-21.29308 -15.3044,-31.93962 -13.30818,-10.64655 -25.95095,-15.30441 -25.95095,-15.30441 0,0 -98.716816,33.83875 -105.467291,-52.5673 -1.382761,-17.69934 20.729927,-20.025527 32.573301,-27.216556 8.09583,-4.915603 19.26741,-9.306993 26.90794,-17.434307 8.07577,-8.590272 13.01133,-20.682325 18.7043,-29.209507 C 190.74558,-18.8654 279.4717,-9.3157233 317.4,67.871698 336.17346,106.07732 394.76177,203.88262 387.03519,304.83186 378.60475,414.97716 292.90693,526.42533 154.37484,524.34214 29.011368,522.45698 4.6958156,460.41809 4.5199825,420.43515 4.1906064,345.53785 46.689793,316.193 91.604403,303.60235 140.80598,289.80995 193.75302,293.58183 216.92327,218.25409 Z"
     id="path17"
     sodipodi:nodetypes="cscsssssssssc" />
  <path
     d="m 244.602,404.96 c 5.14,-1.151 11.033,0.055 15.526,2.657 21.369,12.378 13.501,41.99 4.251,59.351 -14.325,26.889 -40.665,45.39 -69.386,53.808 -9.799,2.928 -19.826,5.034 -29.976,6.293 C 106.969,533.864 30.0176,512.331 7.08974,452.255 -4.13973,422.832 -1.99658,382.387 13.2854,354.63 c 15.557,-27.69 41.3014,-48.216 71.759,-57.216 10.7243,-3.286 22.5796,-5.375 33.6436,-6.895 13.486,-1.855 25.975,-2.288 39.163,-6.317 3.014,-0.921 5.519,-2.139 8.356,-3.44 26.773,-12.291 32.234,-39.292 45.095,-62.884 8.221,-15.615 19.987,-29.285 34.364,-39.542 2.225,-1.588 9.04,-7.459 11.939,-4.845 3.089,2.786 1.774,10.777 2.092,14.771 0.463,5.832 0.997,11.829 2.05,17.604 0.554,4.075 1.564,8.18 3.336,11.91 0.755,4.083 1.82,7.733 -3.945,8.469 -0.993,0.127 -2.411,-0.108 -3.236,-0.822 -4.238,-4.87 -7.448,-26.761 -7.805,-32.746 -0.112,-1.784 -0.162,-3.572 -0.152,-5.36 -15.314,10.691 -27.063,27.578 -34.701,44.379 -8.129,17.885 -14.499,35.335 -30.039,48.47 -11.093,9.377 -22.405,13.393 -36.573,16.247 -4.04,0.815 -8.691,0.926 -12.68,1.617 -9.098,1.578 -18.542,2.241 -27.571,3.797 -26.6019,4.471 -51.6649,15.636 -70.3419,35.483 -14.4438,15.348 -23.6931,33.75 -26.9203,54.609 -3.91348,25.297 0.2628,55.086 15.4898,76.186 19.3588,26.822 52.4232,41.724 84.2024,47.501 6.35,1.121 19.993,2.94 26.236,3.081 30.552,0.55 63.463,-5.483 88.846,-23.335 19.033,-13.388 33.935,-33.026 37.743,-56.368 1.325,-8.126 -0.067,-18.438 -8.55,-22.864 -0.54,-0.283 -1.803,-0.774 -2.231,-1.101 l 0.202,-0.269 c 0.888,0.219 1.2,0.352 2.095,0.294 -1.141,-1.636 -0.507,-5.311 -2.834,-9.668 -2.521,0.066 -5.188,-0.222 -7.716,-0.416 z"
     fill="#1c4056"
     id="path1" />
  <path
     d="m 159.031,174.745 c -18.55,4.971 -30.601,6.633 -49.273,0.931 -16.7685,-5.121 -30.4528,-18.084 -38.2366,-33.55 -4.4411,-9.137 -9.4552,-22.705 -6.5687,-32.836 2.6452,-9.286 17.3785,-13.6844 25.5278,-16.9928 7.5283,-2.9762 14.9295,-6.2644 22.1855,-9.8557 18.58,-9.3229 18.055,-11.5933 24.634,-29.7845 25.147,-69.5376 141.623,-69.2514 172.868,-4.7762 9.436,19.5963 10.711,42.1347 3.55,62.6712 -5.472,15.661 -16.913,29.571 -31.788,37.336 -13.81,7.209 -31.109,3.946 -37.981,-11.176 l -0.122,-0.275 0.26,-0.576 c -0.271,-0.578 -0.526,-1.164 -0.766,-1.755 -0.818,-2.017 -3.818,-10.52 -3.174,-12.049 l 0.835,1.462 c 2.89,1.12 5.575,-2.694 7.561,-1.683 0.54,3.309 0.747,3.679 1.586,6.873 0.3,-0.423 0.229,-0.253 0.3,-0.757 5.671,13.799 15.137,17.341 28.553,10.224 12.783,-6.783 22.147,-20.104 26.415,-33.679 12.967,-41.2583 -13.105,-79.8149 -53.348,-90.7751 -35.568,-10.10526 -81.173,-1.126 -101.174,32.6657 -6.268,10.8772 -6.279,22.6995 -15.163,32.3072 -10.702,11.575 -25.516,14.5098 -38.4723,21.6942 1.5402,1.911 2.5714,6.829 2.7943,9.288 1.073,11.816 -7.2886,25.427 -18.8847,28.938 2.3518,7.736 13.4883,18.557 20.4847,22.609 4.233,2.452 11.238,5.642 16.046,6.61 21.26,4.279 44.215,-0.849 59.275,-17.108 2.216,-2.034 3.744,-4.965 6.018,-6.835 2.252,-1.851 6.76,0.18 7.143,2.486 1.079,6.483 -10.281,15.035 -14.276,18.697 -2.225,0.877 -7.91,5.224 -10.734,6.446 -1.148,0.498 -5.47,2.291 -6.028,3.015 z M 88.9864,103.756 c -4.5088,1.605 -12.4734,4.157 -14.669,8.794 -2.0815,4.397 1.0956,13.544 2.9445,17.789 5.6026,-2.873 10.863,-7.93 12.4844,-14.197 1.0959,-4.237 0.2086,-8.248 -0.7599,-12.386 z"
     fill="#234a5b"
     id="path2" />
  <path
     d="m 88.9862,103.756 c 1.744,-1.445 6.0473,-2.763 8.2534,-3.367 1.5401,1.911 2.5714,6.829 2.7944,9.288 1.073,11.816 -7.2887,25.427 -18.8848,28.938 -1.6442,-2.368 -3.1317,-5.494 -3.8875,-8.276 5.6027,-2.873 10.863,-7.93 12.4845,-14.198 1.0958,-4.236 0.2086,-8.247 -0.76,-12.385 z"
     fill="#85c6a6"
     id="path3" />
  <path
     d="m 320.938,73.2242 c 2.167,0.9086 6.457,4.7357 7.8,6.6474 5.369,7.6422 10.692,16.3422 15.213,24.4874 25.495,45.092 41.421,94.956 46.782,146.478 0.985,9.943 1.833,18.925 1.747,28.979 -0.463,25.707 -4.343,51.239 -11.535,75.923 -17.535,58.824 -55.624,109.393 -107.327,142.482 -7.289,4.751 -15.191,9.083 -22.878,13.158 -3.503,1.855 -7.623,3.369 -10.885,5.203 l -0.333,0.191 c -7.641,3.922 -12.209,-5.311 -4.676,-8.714 88.297,-39.896 145.641,-126.33 147.433,-223.301 1.775,-63.753 -19.043,-126.685 -50.263,-181.661 -4.843,-8.5242 -14.902,-18.8664 -11.078,-29.8728 z"
     fill="#85c6a6"
     id="path4" />
  <path
     d="m 162.283,487.653 c -4.407,1.214 -8.879,1.775 -13.322,2.213 -31.854,3.139 -62.6024,-6.218 -87.8776,-25.654 -6.0358,-4.64 -1.4445,-11.111 4.7182,-8.643 2.7503,1.102 5.771,4.247 8.3701,5.886 5.2055,3.286 10.5552,6.67 16.1908,9.18 8.2889,3.725 16.9665,6.509 25.8735,8.309 13.3,2.579 34.828,2.995 47.415,-2.027 28.221,-11.261 33.346,-49.623 23.869,-75.249 -9.665,-27.219 -39.682,-45.682 -68.355,-41.175 -12.041,1.892 -11.49,-7.757 -4.493,-9.133 36.207,-6.9 73.366,15.864 83.392,51.409 5.863,20.789 4.932,44.311 -6.448,63.148 -1.151,1.24 -2.404,1.856 -3.744,2.843 -8.175,6.024 -16.521,11.757 -24.818,17.603 -0.39,0.275 -0.631,0.846 -0.771,1.29 z"
     fill="#85c6a6"
     id="path5" />
  <path
     d="m 332.8,286.545 0.774,0.216 c -0.15,1.748 -0.954,1.942 -1.184,4.166 0.516,0.169 1.7,-0.136 2.327,-0.244 0.452,-1.123 -0.696,-1.475 -0.338,-2.488 3.53,1.193 3.844,7.611 5.394,9.225 0.58,-1.454 0.422,-3.082 1.545,-3.869 -1.836,8.814 -8.948,19.724 -16.489,24.622 l -0.236,0.15 c -0.446,0.946 -2.715,2.036 -3.677,2.593 -5.254,3.026 -11.075,5.087 -16.991,6.426 -8.488,1.922 -16.695,1.47 -23.515,7.971 -11.954,11.399 -6.057,27.33 -4.005,41.28 0.538,3.669 0.585,7.469 0.497,11.171 -0.089,3.636 -0.092,10.021 -2.99,12.578 -0.868,0.765 -1.922,1.082 -3.068,0.998 -1.395,-0.099 -3.187,-0.757 -4.074,-1.872 -1.479,-1.858 0.252,-12.502 0.186,-15.553 -0.242,-11.457 -4.627,-23.011 -3.237,-34.421 0.843,-6.903 2.912,-12.902 7.43,-18.31 10.531,-12.609 23.112,-10.603 36.953,-14.947 4.571,-1.436 9.078,-3.941 12.855,-6.883 7.694,-8.237 9.361,-11.599 11.843,-22.809 z"
     fill="#3e6a6f"
     id="path6" />
  <path
     d="m 293.138,177.563 c 1.226,0.489 3.215,1.165 3.683,2.487 0.899,2.527 0.572,6.647 -0.036,9.311 -2.113,9.288 -2.465,16.715 -2.063,26.231 7.674,4.577 14.073,7.738 19.731,14.917 1.234,1.563 2.596,2.903 3.617,4.67 0.008,0.102 0.105,1.512 0.119,1.466 -0.638,2.127 -2.08,6.201 -3.669,7.615 -0.957,0.254 -0.519,0.294 -1.368,0.006 -0.693,-1.022 -0.396,-0.918 -1.351,-1.258 -0.551,-0.631 -2.396,-3.267 -2.973,-4.12 -5.006,-7.403 -15.454,-14.579 -23.964,-17.253 -5.222,-1.641 -14.106,-2.963 -19.781,-3.859 -1.772,-3.73 -2.782,-7.835 -3.336,-11.91 1.472,-2.538 3.619,-6.181 5.344,-8.451 5.414,-7.13 17.363,-17.324 26.047,-19.852 z m -23.329,31.593 c 1.368,0.076 2.735,0.13 4.094,0.302 3.157,0.335 8.393,1.825 11.538,2.845 -0.369,-4.924 0.724,-12.307 1.296,-17.34 0.119,-1.038 0.743,-2.857 0.429,-3.543 l -0.23,-0.054 c -6.737,4.734 -12.209,11.256 -17.127,17.79 z"
     fill="#85c6a6"
     id="path7" />
  <path
     d="m 205.858,455.14 c 0.18,-0.536 2.848,-3.434 3.42,-4.136 2.387,-3.006 5.008,-6.379 6.942,-9.682 8.161,-13.939 8.669,-33.323 28.381,-36.362 2.529,0.194 5.196,0.482 7.717,0.416 2.326,4.357 1.693,8.032 2.834,9.668 -0.895,0.058 -1.208,-0.075 -2.095,-0.294 l -0.202,0.269 c -4.294,-0.921 -8.209,-0.785 -12.038,1.706 -7.274,4.734 -8.54,14.641 -12.025,22.015 -5.063,10.708 -11.558,19.908 -20.641,27.59 -1.172,0.99 -4.926,4.047 -6.112,4.676 -7.863,7.58 -29.058,14.478 -39.756,16.647 0.14,-0.444 0.381,-1.016 0.771,-1.29 8.297,-5.847 16.643,-11.579 24.818,-17.603 1.34,-0.987 2.593,-1.603 3.744,-2.843 3.067,-0.449 11.395,-8.548 14.242,-10.777 z"
     fill="#6ca091"
     id="path8" />
  <path
     d="m 191.616,465.917 c 3.067,-0.449 11.395,-8.548 14.242,-10.777 -1.267,4.165 -14.114,11.437 -17.734,14.058 1.559,1.883 3.712,5.414 5.575,6.532 1.767,-0.905 6.763,-5.018 8.34,-4.724 -7.863,7.58 -29.058,14.478 -39.756,16.647 0.14,-0.444 0.381,-1.016 0.771,-1.29 8.297,-5.847 16.643,-11.579 24.818,-17.603 1.34,-0.987 2.593,-1.603 3.744,-2.843 z"
     fill="#254d5c"
     id="path9" />
  <path
     d="m 243.827,136.437 c -1.469,-2.506 -2.524,-5.852 -3.258,-8.679 -1.236,-4.72 -1.895,-9.571 -1.963,-14.449 -0.094,-16.4077 5.933,-33.6313 2.374,-50.4158 -1.372,-6.468 -3.705,-12.3959 -7.214,-17.9949 -2.291,-3.6557 1.776,-9.2439 6.177,-6.9669 2.619,1.331 4.593,5.9707 5.921,8.5297 9.262,19.5819 4.838,40.5213 3.006,61.0629 -0.548,6.458 -0.276,14.08 1.559,20.428 -0.071,0.504 0,0.334 -0.3,0.757 -0.839,-3.194 -1.046,-3.564 -1.586,-6.873 -1.986,-1.011 -4.672,2.803 -7.561,1.683 l -0.835,-1.462 c -0.644,1.529 2.355,10.032 3.173,12.049 0.241,0.591 0.496,1.177 0.766,1.755 z"
     fill="#82bfa3"
     id="path10" />
  <path
     d="m 175.839,165.074 c 18.276,1.249 35.914,13.644 34.279,33.675 -0.43,5.275 -2.64,9.185 -7.963,10.659 -1.4,-5.179 -0.79,-7.329 -1.014,-12.446 -0.346,-7.903 -5.461,-14.662 -12.304,-18.386 -5.878,-3.197 -13.987,-4.638 -20.665,-4.36 -2.715,0.113 -6.646,0.682 -9.141,0.528 l 0.047,-0.209 c 0.558,-0.724 4.88,-2.517 6.028,-3.015 2.824,-1.222 8.509,-5.569 10.733,-6.446 z"
     fill="#85c6a6"
     id="path11" />
  <path
     d="m 318.07,235.179 c 3.447,5.7 5.708,10.079 7.441,16.65 1.434,5.046 1.969,10.914 4.269,15.638 2.593,5.325 9.419,8.212 11.482,13.936 1.057,2.937 1.196,9.233 0.056,12.148 -1.124,0.787 -0.965,2.415 -1.545,3.869 -1.551,-1.614 -1.864,-8.032 -5.395,-9.225 -0.358,1.013 0.791,1.365 0.339,2.488 -0.627,0.108 -1.812,0.413 -2.327,0.244 0.23,-2.224 1.034,-2.418 1.184,-4.166 l -0.774,-0.216 c -0.519,-3.813 -9.738,-10.675 -12.137,-15.964 -3.062,-6.758 -2.738,-10.541 -4.615,-17.366 -0.644,-2.339 -3.248,-7.529 -4.247,-10.207 0.954,0.34 0.658,0.236 1.351,1.258 0.849,0.288 0.41,0.248 1.367,-0.006 1.59,-1.414 3.032,-5.488 3.67,-7.615 -0.014,0.046 -0.111,-1.364 -0.119,-1.466 z"
     fill="#5f9087"
     id="path12" />
  <path
     d="m 262.734,284.728 c 2.596,0.003 5.195,0.1 7.785,0.294 3.753,0.269 18.802,1.265 18.017,6.659 -1.894,2.655 -6.659,1.09 -9.372,0.611 -9.499,-1.922 -17.196,-2.469 -26.73,-1.243 -9.389,1.207 -14.115,2.496 -22.787,5.866 -4.673,1.683 -9.421,4.812 -13.722,7.308 -1.237,0.799 -4.367,2.582 -5.744,1.215 -3.915,-3.891 6.733,-8.72 8.907,-9.957 13.614,-7.732 28.387,-10.581 43.646,-10.753 z"
     fill="#85c6a6"
     id="path13" />
  <path
     d="m 275.243,297.739 c 3.356,-0.108 9.674,-0.929 12.525,1.092 1.359,0.963 0.838,4.055 -0.496,4.341 -5.517,1.181 -11.322,0.308 -17.049,1.295 -15.038,2.593 -27.536,9.388 -38.651,19.733 -1.237,1.168 -3.36,4.257 -4.869,4.457 -3.355,0.441 -5.262,-2.163 -2.879,-4.89 14.06,-16.077 30.9,-22.831 51.419,-26.028 z"
     fill="#85c6a6"
     id="path14" />
  <path
     d="m 173.019,65.0464 c 7.388,-0.4499 18.115,4.3454 20.266,12.8133 0.539,2.1214 -3.198,4.5945 -5.253,4.4882 -2.445,-0.1267 -4.282,-2.3657 -5.958,-4.0464 -6.93,-6.0547 -9.555,-3.2294 -17.015,-0.6437 -4.096,1.42 -6.51,-5.1786 -3.726,-8.0424 3.259,-3.3529 7.223,-4.1 11.686,-4.569 z"
     fill="#204559"
     id="path15" />
  <path
     d="m 281.647,260.427 c 4.027,-0.022 3.955,2.961 7.807,4.308 4.219,1.476 15.227,-3.112 12.398,5.441 -0.335,1.015 -1.373,1.356 -2.291,1.756 -6.129,2.199 -15.379,0.066 -19.534,-5.026 -2.211,-2.707 -0.649,-4.789 1.62,-6.479 z"
     fill="#85c6a6"
     id="path16" />
</svg>
